<svg width="21" height="24" viewBox="0 0 21 24" fill="none" xmlns="http://www.w3.org/2000/svg">
<path d="M17.0763 13.453C16.4161 10.1305 19.5698 8.18184 19.5698 8.18184C19.5698 8.18184 18.3411 6.4042 16.2761 5.94688C14.2121 5.48857 13.1791 6.06119 12.1481 6.49067C11.1162 6.92119 10.6012 6.92119 10.6012 6.92119C9.11196 6.92119 8.02329 5.34437 5.18588 6.06224C3.2311 6.55555 1.17328 8.81214 0.80148 11.5054C0.429679 14.1997 1.23201 17.6376 2.77894 20.302C4.32587 22.9685 5.90169 23.9706 7.02015 23.9994C8.13865 24.0272 9.2551 23.1981 10.6012 22.9963C11.9484 22.7964 12.7774 23.4845 14.0988 23.8563C15.415 24.2271 15.8765 23.8831 17.3925 22.5936C18.9126 21.3041 20.2886 17.6057 20.2886 17.6057C20.2886 17.6057 17.7365 16.7776 17.0763 13.453Z" fill=""/>
<path d="M14.1534 3.79731C15.6158 2.30705 15.1205 0 15.1205 0C15.1205 0 13.0668 0.360484 11.6908 1.79206C10.3159 3.22469 10.5435 5.48743 10.5435 5.48743C10.5435 5.48743 12.6909 5.28661 14.1534 3.79731Z" fill=""/>
</svg>
