<svg width="20" height="20" viewBox="0 0 20 20" fill="none" xmlns="http://www.w3.org/2000/svg">
<path d="M17.5 18.9583H7.5C7.15833 18.9583 6.875 18.675 6.875 18.3333C6.875 17.9917 7.15833 17.7083 7.5 17.7083H17.5C17.8417 17.7083 18.125 17.9917 18.125 18.3333C18.125 18.675 17.8417 18.9583 17.5 18.9583Z" fill=""/>
<path d="M7.11676 18.925C6.28343 18.925 5.4918 18.6 4.90846 18.0083L1.98345 15.0833C0.766787 13.8667 0.766787 11.8833 1.98345 10.6667L10.6751 1.975C11.8501 0.8 13.9168 0.8 15.0918 1.975L18.0168 4.9C19.2334 6.11666 19.2334 8.1 18.0168 9.31666L9.32512 18.0083C8.74179 18.6083 7.95843 18.925 7.11676 18.925ZM2.86678 14.2083L5.79179 17.1333C6.50013 17.8417 7.74179 17.8417 8.44179 17.1333L17.1334 8.44166C17.8668 7.70833 17.8668 6.52499 17.1334 5.79166L14.2084 2.86667C13.5084 2.16667 12.2668 2.15833 11.5584 2.86667L2.86678 11.5583C2.13345 12.2833 2.13345 13.475 2.86678 14.2083Z" fill=""/>
<path d="M12.3917 14.6917C12.2333 14.6917 12.075 14.6333 11.95 14.5083L5.49171 8.05C5.25004 7.80833 5.25004 7.40833 5.49171 7.16666C5.73337 6.925 6.13337 6.925 6.37504 7.16666L12.8334 13.625C13.075 13.8667 13.075 14.2667 12.8334 14.5083C12.7084 14.6333 12.55 14.6917 12.3917 14.6917Z" fill=""/>
<path d="M2.93334 15.3417C2.775 15.3417 2.61664 15.2833 2.49164 15.1583C2.24998 14.9167 2.24998 14.5167 2.49164 14.275L7.20834 9.55833C7.45001 9.31666 7.85 9.31666 8.09167 9.55833C8.33334 9.79999 8.33334 10.2 8.09167 10.4417L3.37498 15.1583C3.24998 15.2833 3.09167 15.3417 2.93334 15.3417Z" fill=""/>
<path d="M5.28319 17.7C5.12486 17.7 4.9665 17.6417 4.8415 17.5167C4.59983 17.275 4.59983 16.875 4.8415 16.6334L9.55814 11.9167C9.79981 11.675 10.1999 11.675 10.4415 11.9167C10.6832 12.1584 10.6832 12.5584 10.4415 12.8L5.72483 17.5167C5.60816 17.6334 5.44986 17.7 5.28319 17.7Z" fill=""/>
</svg>
