<svg width="20" height="20" viewBox="0 0 20 20" fill="none" xmlns="http://www.w3.org/2000/svg">
<path d="M8.32498 18.9833C7.82498 18.9833 7.34998 18.7333 7.02498 18.2917L6.025 16.9583C6.025 16.9667 5.98333 16.9417 5.96666 16.9417H5.65833C2.80833 16.9417 1.04166 16.1667 1.04166 12.325V8.99167C1.04166 5.48334 3.18333 4.56667 4.98333 4.40834C5.18333 4.38334 5.41666 4.375 5.65833 4.375H10.9917C14.0083 4.375 15.6083 5.97501 15.6083 8.99167V12.325C15.6083 12.5667 15.6 12.8 15.5667 13.025C15.4166 14.8 14.5 16.9417 10.9917 16.9417H10.6583L9.62498 18.2917C9.29998 18.7333 8.82498 18.9833 8.32498 18.9833ZM5.65833 5.625C5.46666 5.625 5.28333 5.63333 5.10833 5.65C3.17499 5.81667 2.29166 6.87501 2.29166 8.99167V12.325C2.29166 15.1833 3.175 15.6917 5.65833 15.6917H5.99166C6.36666 15.6917 6.79165 15.9 7.02498 16.2L8.02499 17.5417C8.20833 17.7917 8.44166 17.7917 8.62499 17.5417L9.62498 16.2083C9.86665 15.8833 10.25 15.6917 10.6583 15.6917H10.9917C13.1083 15.6917 14.1667 14.8 14.325 12.9C14.35 12.7 14.3583 12.5167 14.3583 12.325V8.99167C14.3583 6.66667 13.3167 5.625 10.9917 5.625H5.65833Z" fill=""/>
<path d="M8.32519 11.825C7.85852 11.825 7.49185 11.45 7.49185 10.9917C7.49185 10.5333 7.86685 10.1583 8.32519 10.1583C8.78352 10.1583 9.15852 10.5333 9.15852 10.9917C9.15852 11.45 8.79185 11.825 8.32519 11.825Z" fill=""/>
<path d="M10.9916 11.825C10.525 11.825 10.1583 11.45 10.1583 10.9917C10.1583 10.5333 10.5333 10.1583 10.9916 10.1583C11.45 10.1583 11.825 10.5333 11.825 10.9917C11.825 11.45 11.45 11.825 10.9916 11.825Z" fill=""/>
<path d="M5.66649 11.825C5.19983 11.825 4.83316 11.45 4.83316 10.9917C4.83316 10.5333 5.20816 10.1583 5.66649 10.1583C6.12483 10.1583 6.49983 10.5333 6.49983 10.9917C6.49983 11.45 6.12483 11.825 5.66649 11.825Z" fill=""/>
<path d="M14.9501 13.575C14.7834 13.575 14.6168 13.5084 14.5001 13.3834C14.3668 13.25 14.3084 13.0584 14.3334 12.875C14.3584 12.7 14.3668 12.5167 14.3668 12.325V8.99169C14.3668 6.66669 13.3251 5.62502 11.0001 5.62502H5.66676C5.47509 5.62502 5.29178 5.63335 5.11678 5.65002C4.93345 5.67502 4.74177 5.60834 4.60843 5.48334C4.4751 5.35001 4.40009 5.1667 4.41676 4.98336C4.56676 3.18336 5.49176 1.04169 9.00009 1.04169H14.3334C17.3501 1.04169 18.9501 2.64169 18.9501 5.65836V8.99169C18.9501 12.5 16.8084 13.4167 15.0084 13.575C14.9834 13.575 14.9668 13.575 14.9501 13.575ZM5.76678 4.37502H10.9918C14.0084 4.37502 15.6084 5.97503 15.6084 8.99169V12.2167C17.0251 11.8667 17.6918 10.825 17.6918 8.99169V5.65836C17.6918 3.33336 16.6501 2.29169 14.3251 2.29169H8.99178C7.15844 2.29169 6.12511 2.95835 5.76678 4.37502Z" fill=""/>
</svg>
