<svg width="20" height="20" viewBox="0 0 20 20" fill="none" xmlns="http://www.w3.org/2000/svg">
<path d="M15.8333 7.29169C14.1083 7.29169 12.7083 5.89169 12.7083 4.16669C12.7083 2.44169 14.1083 1.04169 15.8333 1.04169C17.5583 1.04169 18.9583 2.44169 18.9583 4.16669C18.9583 5.89169 17.5583 7.29169 15.8333 7.29169ZM15.8333 2.29169C14.8 2.29169 13.9583 3.13335 13.9583 4.16669C13.9583 5.20002 14.8 6.04169 15.8333 6.04169C16.8667 6.04169 17.7083 5.20002 17.7083 4.16669C17.7083 3.13335 16.8667 2.29169 15.8333 2.29169Z" fill=""/>
<path d="M10 11.4583H5.83334C5.49168 11.4583 5.20834 11.175 5.20834 10.8333C5.20834 10.4916 5.49168 10.2083 5.83334 10.2083H10C10.3417 10.2083 10.625 10.4916 10.625 10.8333C10.625 11.175 10.3417 11.4583 10 11.4583Z" fill=""/>
<path d="M13.3333 14.7917H5.83334C5.49168 14.7917 5.20834 14.5084 5.20834 14.1667C5.20834 13.825 5.49168 13.5417 5.83334 13.5417H13.3333C13.675 13.5417 13.9583 13.825 13.9583 14.1667C13.9583 14.5084 13.675 14.7917 13.3333 14.7917Z" fill=""/>
<path d="M12.5 18.9584H7.49999C2.97499 18.9584 1.04166 17.025 1.04166 12.5V7.50002C1.04166 2.97502 2.97499 1.04169 7.49999 1.04169H11.6667C12.0083 1.04169 12.2917 1.32502 12.2917 1.66669C12.2917 2.00835 12.0083 2.29169 11.6667 2.29169H7.49999C3.65832 2.29169 2.29166 3.65835 2.29166 7.50002V12.5C2.29166 16.3417 3.65832 17.7084 7.49999 17.7084H12.5C16.3417 17.7084 17.7083 16.3417 17.7083 12.5V8.33335C17.7083 7.99169 17.9917 7.70835 18.3333 7.70835C18.675 7.70835 18.9583 7.99169 18.9583 8.33335V12.5C18.9583 17.025 17.025 18.9584 12.5 18.9584Z" fill=""/>
</svg>
