<svg width="20" height="20" viewBox="0 0 20 20" fill="none" xmlns="http://www.w3.org/2000/svg">
<path d="M10 18.9667C9.09168 18.9667 8.19168 18.7 7.48334 18.175L3.90001 15.5C2.95001 14.7917 2.20834 13.3167 2.20834 12.1333V5.93335C2.20834 4.65001 3.15001 3.28335 4.35834 2.83335L8.51668 1.27501C9.34168 0.966679 10.6417 0.966679 11.4667 1.27501L15.6333 2.83335C16.8417 3.28335 17.7833 4.65001 17.7833 5.93335V12.125C17.7833 13.3083 17.0417 14.7833 16.0917 15.4917L12.5083 18.1667C11.8083 18.7 10.9083 18.9667 10 18.9667ZM8.95834 2.45001L4.80001 4.00835C4.08334 4.27501 3.45834 5.17501 3.45834 5.94168V12.1333C3.45834 12.925 4.01668 14.0333 4.64168 14.5L8.22501 17.175C9.18334 17.8917 10.8083 17.8917 11.7667 17.175L15.35 14.5C15.9833 14.025 16.5333 12.9167 16.5333 12.1333V5.93335C16.5333 5.17501 15.9083 4.27501 15.1917 4.00001L11.0333 2.44168C10.4833 2.24168 9.51668 2.24168 8.95834 2.45001Z" fill=""/>
<path d="M10 11.0416C8.73334 11.0416 7.70834 10.0166 7.70834 8.74998C7.70834 7.48331 8.73334 6.45831 10 6.45831C11.2667 6.45831 12.2917 7.48331 12.2917 8.74998C12.2917 10.0166 11.2667 11.0416 10 11.0416ZM10 7.70831C9.42501 7.70831 8.95834 8.17498 8.95834 8.74998C8.95834 9.32498 9.42501 9.79165 10 9.79165C10.575 9.79165 11.0417 9.32498 11.0417 8.74998C11.0417 8.17498 10.575 7.70831 10 7.70831Z" fill=""/>
<path d="M10 13.5417C9.65833 13.5417 9.375 13.2584 9.375 12.9167V10.4167C9.375 10.075 9.65833 9.79169 10 9.79169C10.3417 9.79169 10.625 10.075 10.625 10.4167V12.9167C10.625 13.2584 10.3417 13.5417 10 13.5417Z" fill=""/>
</svg>
