<svg width="20" height="20" viewBox="0 0 20 20" fill="none" xmlns="http://www.w3.org/2000/svg">
<path d="M14.7167 18.8917C14.275 18.8917 13.7083 18.75 13 18.3333L10.5083 16.8583C10.25 16.7083 9.75 16.7083 9.5 16.8583L7 18.3333C5.525 19.2083 4.65833 18.8583 4.26666 18.575C3.88333 18.2917 3.28333 17.5667 3.675 15.9L4.26666 13.3417C4.33333 13.075 4.2 12.6167 4 12.4167L1.93333 10.35C0.899996 9.31667 0.98333 8.43334 1.125 8.00001C1.26666 7.56667 1.71666 6.80001 3.15 6.55834L5.80833 6.11667C6.05833 6.07501 6.41666 5.80834 6.525 5.58334L8 2.64167C8.66666 1.30001 9.54166 1.10001 10 1.10001C10.4583 1.10001 11.3333 1.30001 12 2.64167L13.4667 5.57501C13.5833 5.80001 13.9417 6.06667 14.1917 6.10834L16.85 6.55001C18.2917 6.79167 18.7417 7.55834 18.875 7.99167C19.0083 8.42501 19.0917 9.30834 18.0667 10.3417L16 12.4167C15.8 12.6167 15.675 13.0667 15.7333 13.3417L16.325 15.9C16.7083 17.5667 16.1167 18.2917 15.7333 18.575C15.525 18.725 15.1917 18.8917 14.7167 18.8917ZM10 15.4917C10.4083 15.4917 10.8167 15.5917 11.1417 15.7833L13.6333 17.2583C14.3583 17.6917 14.8167 17.6917 14.9917 17.5667C15.1667 17.4417 15.2917 17 15.1083 16.1833L14.5167 13.625C14.3583 12.9333 14.6167 12.0417 15.1167 11.5333L17.1833 9.46667C17.5917 9.05834 17.775 8.65834 17.6917 8.38334C17.6 8.10834 17.2167 7.88334 16.65 7.79167L13.9917 7.35001C13.35 7.24167 12.65 6.72501 12.3583 6.14167L10.8917 3.20834C10.625 2.67501 10.2917 2.35834 10 2.35834C9.70833 2.35834 9.375 2.67501 9.11666 3.20834L7.64166 6.14167C7.35 6.72501 6.65 7.24167 6.00833 7.35001L3.35833 7.79167C2.79166 7.88334 2.40833 8.10834 2.31666 8.38334C2.225 8.65834 2.41666 9.06667 2.825 9.46667L4.89166 11.5333C5.39166 12.0333 5.65 12.9333 5.49166 13.625L4.9 16.1833C4.70833 17.0083 4.84166 17.4417 5.01666 17.5667C5.19166 17.6917 5.64166 17.6833 6.375 17.2583L8.86666 15.7833C9.18333 15.5917 9.59166 15.4917 10 15.4917Z" fill=""/>
</svg>
