<svg width="20" height="20" viewBox="0 0 20 20" fill="none" xmlns="http://www.w3.org/2000/svg">
<path d="M10.7333 17.3833H5.67499C2.71666 17.3833 1.66666 15.3083 1.66666 13.375V6.625C1.66666 3.74167 2.79166 2.61667 5.67499 2.61667H10.7333C13.6167 2.61667 14.7417 3.74167 14.7417 6.625V13.375C14.7417 16.2583 13.6167 17.3833 10.7333 17.3833ZM5.67499 3.88334C3.49999 3.88334 2.93332 4.45 2.93332 6.625V13.375C2.93332 14.4 3.29166 16.1167 5.67499 16.1167H10.7333C12.9083 16.1167 13.475 15.55 13.475 13.375V6.625C13.475 4.45 12.9083 3.88334 10.7333 3.88334H5.67499Z" fill=""/>
<path d="M17.3166 15.0917C16.9583 15.0917 16.4999 14.975 15.9749 14.6083L13.7499 13.05C13.5833 12.9333 13.4833 12.7417 13.4833 12.5333V7.46667C13.4833 7.25834 13.5833 7.06667 13.7499 6.95001L15.9749 5.39167C16.9666 4.70001 17.6916 4.90001 18.0333 5.07501C18.3749 5.25834 18.9583 5.73334 18.9583 6.94167V13.05C18.9583 14.2583 18.3749 14.7417 18.0333 14.9167C17.8749 15.0083 17.6249 15.0917 17.3166 15.0917ZM14.7416 12.2L16.6999 13.5667C17.0749 13.825 17.3416 13.85 17.4499 13.7917C17.5666 13.7333 17.6916 13.5 17.6916 13.05V6.95001C17.6916 6.49167 17.5583 6.26667 17.4499 6.20834C17.3416 6.15001 17.0749 6.17501 16.6999 6.43334L14.7416 7.80001V12.2Z" fill=""/>
<path d="M9.58334 9.79166C8.55001 9.79166 7.70834 8.94999 7.70834 7.91666C7.70834 6.88332 8.55001 6.04166 9.58334 6.04166C10.6167 6.04166 11.4583 6.88332 11.4583 7.91666C11.4583 8.94999 10.6167 9.79166 9.58334 9.79166ZM9.58334 7.29166C9.24168 7.29166 8.95834 7.57499 8.95834 7.91666C8.95834 8.25832 9.24168 8.54166 9.58334 8.54166C9.92501 8.54166 10.2083 8.25832 10.2083 7.91666C10.2083 7.57499 9.92501 7.29166 9.58334 7.29166Z" fill=""/>
</svg>
