<svg width="108" height="98" viewBox="0 0 108 98" fill="none" xmlns="http://www.w3.org/2000/svg">
<rect x="22" width="64" height="64" rx="32" fill="white" fill-opacity="0.12"/>
<rect x="37.3333" y="23.6667" width="33.3333" height="23.3333" rx="2" stroke="white" stroke-width="2" stroke-linecap="round" stroke-linejoin="round"/>
<path d="M60.6667 32.4166H62.3333" stroke="white" stroke-width="2" stroke-linecap="round" stroke-linejoin="round"/>
<path d="M62.3333 32.4167V38.2501" stroke="white" stroke-width="2" stroke-linecap="round" stroke-linejoin="round"/>
<path d="M60.6667 38.2501H64" stroke="white" stroke-width="2" stroke-linecap="round" stroke-linejoin="round"/>
<rect x="43.1667" y="32.4167" width="5" height="5.83333" rx="0.5" stroke="white" stroke-width="2" stroke-linecap="round" stroke-linejoin="round"/>
<path d="M54 23.6667V47.0001" stroke="white" stroke-width="2" stroke-linecap="round" stroke-linejoin="round"/>
<path d="M44 23.6667V17" stroke="white" stroke-width="2" stroke-linecap="round" stroke-linejoin="round"/>
<path d="M64 23.6667V17" stroke="white" stroke-width="2" stroke-linecap="round" stroke-linejoin="round"/>
<path d="M5.58 91.126C4.704 91.126 3.912 90.976 3.204 90.676C2.508 90.376 1.956 89.944 1.548 89.38C1.14 88.816 0.93 88.15 0.918 87.382H3.618C3.654 87.898 3.834 88.306 4.158 88.606C4.494 88.906 4.95 89.056 5.526 89.056C6.114 89.056 6.576 88.918 6.912 88.642C7.248 88.354 7.416 87.982 7.416 87.526C7.416 87.154 7.302 86.848 7.074 86.608C6.846 86.368 6.558 86.182 6.21 86.05C5.874 85.906 5.406 85.75 4.806 85.582C3.99 85.342 3.324 85.108 2.808 84.88C2.304 84.64 1.866 84.286 1.494 83.818C1.134 83.338 0.954 82.702 0.954 81.91C0.954 81.166 1.14 80.518 1.512 79.966C1.884 79.414 2.406 78.994 3.078 78.706C3.75 78.406 4.518 78.256 5.382 78.256C6.678 78.256 7.728 78.574 8.532 79.21C9.348 79.834 9.798 80.71 9.882 81.838H7.11C7.086 81.406 6.9 81.052 6.552 80.776C6.216 80.488 5.766 80.344 5.202 80.344C4.71 80.344 4.314 80.47 4.014 80.722C3.726 80.974 3.582 81.34 3.582 81.82C3.582 82.156 3.69 82.438 3.906 82.666C4.134 82.882 4.41 83.062 4.734 83.206C5.07 83.338 5.538 83.494 6.138 83.674C6.954 83.914 7.62 84.154 8.136 84.394C8.652 84.634 9.096 84.994 9.468 85.474C9.84 85.954 10.026 86.584 10.026 87.364C10.026 88.036 9.852 88.66 9.504 89.236C9.156 89.812 8.646 90.274 7.974 90.622C7.302 90.958 6.504 91.126 5.58 91.126ZM11.6528 86.014C11.6528 84.982 11.8628 84.082 12.2828 83.314C12.7028 82.534 13.2848 81.934 14.0288 81.514C14.7728 81.082 15.6248 80.866 16.5848 80.866C17.8208 80.866 18.8408 81.178 19.6448 81.802C20.4608 82.414 21.0068 83.278 21.2828 84.394H18.5648C18.4208 83.962 18.1748 83.626 17.8268 83.386C17.4908 83.134 17.0708 83.008 16.5668 83.008C15.8468 83.008 15.2768 83.272 14.8568 83.8C14.4368 84.316 14.2268 85.054 14.2268 86.014C14.2268 86.962 14.4368 87.7 14.8568 88.228C15.2768 88.744 15.8468 89.002 16.5668 89.002C17.5868 89.002 18.2528 88.546 18.5648 87.634H21.2828C21.0068 88.714 20.4608 89.572 19.6448 90.208C18.8288 90.844 17.8088 91.162 16.5848 91.162C15.6248 91.162 14.7728 90.952 14.0288 90.532C13.2848 90.1 12.7028 89.5 12.2828 88.732C11.8628 87.952 11.6528 87.046 11.6528 86.014ZM27.6469 91.162C26.6869 91.162 25.8229 90.952 25.0549 90.532C24.2869 90.1 23.6809 89.494 23.2369 88.714C22.8049 87.934 22.5889 87.034 22.5889 86.014C22.5889 84.994 22.8109 84.094 23.2549 83.314C23.7109 82.534 24.3289 81.934 25.1089 81.514C25.8889 81.082 26.7589 80.866 27.7189 80.866C28.6789 80.866 29.5489 81.082 30.3289 81.514C31.1089 81.934 31.7209 82.534 32.1649 83.314C32.6209 84.094 32.8489 84.994 32.8489 86.014C32.8489 87.034 32.6149 87.934 32.1469 88.714C31.6909 89.494 31.0669 90.1 30.2749 90.532C29.4949 90.952 28.6189 91.162 27.6469 91.162ZM27.6469 88.966C28.1029 88.966 28.5289 88.858 28.9249 88.642C29.3329 88.414 29.6569 88.078 29.8969 87.634C30.1369 87.19 30.2569 86.65 30.2569 86.014C30.2569 85.066 30.0049 84.34 29.5009 83.836C29.0089 83.32 28.4029 83.062 27.6829 83.062C26.9629 83.062 26.3569 83.32 25.8649 83.836C25.3849 84.34 25.1449 85.066 25.1449 86.014C25.1449 86.962 25.3789 87.694 25.8469 88.21C26.3269 88.714 26.9269 88.966 27.6469 88.966ZM37.3074 82.576C37.6314 82.048 38.0514 81.634 38.5674 81.334C39.0954 81.034 39.6954 80.884 40.3674 80.884V83.53H39.7014C38.9094 83.53 38.3094 83.716 37.9014 84.088C37.5054 84.46 37.3074 85.108 37.3074 86.032V91H34.7874V81.028H37.3074V82.576ZM51.4247 85.798C51.4247 86.158 51.4007 86.482 51.3527 86.77H44.0627C44.1227 87.49 44.3747 88.054 44.8187 88.462C45.2627 88.87 45.8087 89.074 46.4567 89.074C47.3927 89.074 48.0587 88.672 48.4547 87.868H51.1727C50.8847 88.828 50.3327 89.62 49.5167 90.244C48.7007 90.856 47.6987 91.162 46.5107 91.162C45.5507 91.162 44.6867 90.952 43.9187 90.532C43.1627 90.1 42.5687 89.494 42.1367 88.714C41.7167 87.934 41.5067 87.034 41.5067 86.014C41.5067 84.982 41.7167 84.076 42.1367 83.296C42.5567 82.516 43.1447 81.916 43.9007 81.496C44.6567 81.076 45.5267 80.866 46.5107 80.866C47.4587 80.866 48.3047 81.07 49.0487 81.478C49.8047 81.886 50.3867 82.468 50.7947 83.224C51.2147 83.968 51.4247 84.826 51.4247 85.798ZM48.8147 85.078C48.8027 84.43 48.5687 83.914 48.1127 83.53C47.6567 83.134 47.0987 82.936 46.4387 82.936C45.8147 82.936 45.2867 83.128 44.8547 83.512C44.4347 83.884 44.1767 84.406 44.0807 85.078H48.8147ZM60.4821 84.556C61.1901 84.688 61.7721 85.042 62.2281 85.618C62.6841 86.194 62.9121 86.854 62.9121 87.598C62.9121 88.27 62.7441 88.864 62.4081 89.38C62.0841 89.884 61.6101 90.28 60.9861 90.568C60.3621 90.856 59.6241 91 58.7721 91H53.3541V78.436H58.5381C59.3901 78.436 60.1221 78.574 60.7341 78.85C61.3581 79.126 61.8261 79.51 62.1381 80.002C62.4621 80.494 62.6241 81.052 62.6241 81.676C62.6241 82.408 62.4261 83.02 62.0301 83.512C61.6461 84.004 61.1301 84.352 60.4821 84.556ZM55.8741 83.62H58.1781C58.7781 83.62 59.2401 83.488 59.5641 83.224C59.8881 82.948 60.0501 82.558 60.0501 82.054C60.0501 81.55 59.8881 81.16 59.5641 80.884C59.2401 80.608 58.7781 80.47 58.1781 80.47H55.8741V83.62ZM58.4121 88.948C59.0241 88.948 59.4981 88.804 59.8341 88.516C60.1821 88.228 60.3561 87.82 60.3561 87.292C60.3561 86.752 60.1761 86.332 59.8161 86.032C59.4561 85.72 58.9701 85.564 58.3581 85.564H55.8741V88.948H58.4121ZM69.4385 91.162C68.4785 91.162 67.6145 90.952 66.8465 90.532C66.0785 90.1 65.4725 89.494 65.0285 88.714C64.5965 87.934 64.3805 87.034 64.3805 86.014C64.3805 84.994 64.6025 84.094 65.0465 83.314C65.5025 82.534 66.1205 81.934 66.9005 81.514C67.6805 81.082 68.5505 80.866 69.5105 80.866C70.4705 80.866 71.3405 81.082 72.1205 81.514C72.9005 81.934 73.5125 82.534 73.9565 83.314C74.4125 84.094 74.6405 84.994 74.6405 86.014C74.6405 87.034 74.4065 87.934 73.9385 88.714C73.4825 89.494 72.8585 90.1 72.0665 90.532C71.2865 90.952 70.4105 91.162 69.4385 91.162ZM69.4385 88.966C69.8945 88.966 70.3205 88.858 70.7165 88.642C71.1245 88.414 71.4485 88.078 71.6885 87.634C71.9285 87.19 72.0485 86.65 72.0485 86.014C72.0485 85.066 71.7965 84.34 71.2925 83.836C70.8005 83.32 70.1945 83.062 69.4745 83.062C68.7545 83.062 68.1485 83.32 67.6565 83.836C67.1765 84.34 66.9365 85.066 66.9365 86.014C66.9365 86.962 67.1705 87.694 67.6385 88.21C68.1185 88.714 68.7185 88.966 69.4385 88.966ZM75.931 85.978C75.931 84.97 76.129 84.076 76.525 83.296C76.933 82.516 77.479 81.916 78.163 81.496C78.859 81.076 79.633 80.866 80.485 80.866C81.229 80.866 81.877 81.016 82.429 81.316C82.993 81.616 83.443 81.994 83.779 82.45V81.028H86.317V91H83.779V89.542C83.455 90.01 83.005 90.4 82.429 90.712C81.865 91.012 81.211 91.162 80.467 91.162C79.627 91.162 78.859 90.946 78.163 90.514C77.479 90.082 76.933 89.476 76.525 88.696C76.129 87.904 75.931 86.998 75.931 85.978ZM83.779 86.014C83.779 85.402 83.659 84.88 83.419 84.448C83.179 84.004 82.855 83.668 82.447 83.44C82.039 83.2 81.601 83.08 81.133 83.08C80.665 83.08 80.233 83.194 79.837 83.422C79.441 83.65 79.117 83.986 78.865 84.43C78.625 84.862 78.505 85.378 78.505 85.978C78.505 86.578 78.625 87.106 78.865 87.562C79.117 88.006 79.441 88.348 79.837 88.588C80.245 88.828 80.677 88.948 81.133 88.948C81.601 88.948 82.039 88.834 82.447 88.606C82.855 88.366 83.179 88.03 83.419 87.598C83.659 87.154 83.779 86.626 83.779 86.014ZM91.3883 82.576C91.7123 82.048 92.1323 81.634 92.6483 81.334C93.1763 81.034 93.7763 80.884 94.4483 80.884V83.53H93.7823C92.9903 83.53 92.3903 83.716 91.9823 84.088C91.5863 84.46 91.3883 85.108 91.3883 86.032V91H88.8683V81.028H91.3883V82.576ZM95.5876 85.978C95.5876 84.97 95.7856 84.076 96.1816 83.296C96.5896 82.516 97.1416 81.916 97.8376 81.496C98.5336 81.076 99.3076 80.866 100.16 80.866C100.808 80.866 101.426 81.01 102.014 81.298C102.602 81.574 103.07 81.946 103.418 82.414V77.68H105.974V91H103.418V89.524C103.106 90.016 102.668 90.412 102.104 90.712C101.54 91.012 100.886 91.162 100.142 91.162C99.3016 91.162 98.5336 90.946 97.8376 90.514C97.1416 90.082 96.5896 89.476 96.1816 88.696C95.7856 87.904 95.5876 86.998 95.5876 85.978ZM103.436 86.014C103.436 85.402 103.316 84.88 103.076 84.448C102.836 84.004 102.512 83.668 102.104 83.44C101.696 83.2 101.258 83.08 100.79 83.08C100.322 83.08 99.8896 83.194 99.4936 83.422C99.0976 83.65 98.7736 83.986 98.5216 84.43C98.2816 84.862 98.1616 85.378 98.1616 85.978C98.1616 86.578 98.2816 87.106 98.5216 87.562C98.7736 88.006 99.0976 88.348 99.4936 88.588C99.9016 88.828 100.334 88.948 100.79 88.948C101.258 88.948 101.696 88.834 102.104 88.606C102.512 88.366 102.836 88.03 103.076 87.598C103.316 87.154 103.436 86.626 103.436 86.014Z" fill="white"/>
</svg>
