<svg width="24" height="24" viewBox="0 0 24 24" fill="none" xmlns="http://www.w3.org/2000/svg">
<g clip-path="url(#clip0_7_936)">
<path d="M11.9994 0C18.6056 0 23.9987 5.38929 23.9987 12.0091C24.0169 18.6458 18.6056 24 11.9292 24C5.3762 24 0 18.5925 0 11.9909C0 5.38929 5.3762 0.018172 11.9994 0ZM6.53613 1.52774C6.43091 1.58096 6.36077 1.59784 6.30752 1.63288C5.23592 2.30005 4.26952 3.09054 3.4616 4.05625C1.98474 5.79427 1.12486 7.81266 0.93132 10.0945C0.791037 11.6742 0.807923 13.272 1.23007 14.8167C3.12778 21.8739 11.033 25.2279 17.4288 21.6986C17.4989 21.6636 17.5522 21.6286 17.6574 21.5753C17.5873 21.9089 17.5171 22.1893 17.447 22.506C17.5704 22.4528 17.6223 22.4359 17.6925 22.4009C19.5551 21.2418 21.0307 19.7153 21.9971 17.7307C23.2791 15.097 23.4558 12.3232 22.8583 9.53121C21.2944 2.31563 13.1606 -1.33694 6.67771 2.21049C6.58938 2.26371 6.48417 2.31563 6.34389 2.38572C6.41273 2.07161 6.46598 1.82628 6.53613 1.52774Z" fill=""/>
<path d="M14.4595 18.5043C14.3712 18.2058 14.301 17.9604 14.2491 17.7489C13.6516 17.9942 13.1073 18.2759 12.5267 18.4511C11.472 18.7665 10.4355 18.6964 9.434 18.2408C9.22358 18.1525 9.17033 18.0305 9.2054 17.8021C9.41582 16.7832 9.50415 15.7837 9.24047 14.7648C9.22228 14.7115 9.2054 14.6415 9.18721 14.5895C9.18721 14.5714 9.15214 14.5545 9.11707 14.4844C8.58971 15.2567 8.02728 15.9771 7.27262 16.5742C6.67512 15.2749 6.67512 13.9405 6.85047 12.5361C6.48158 12.6412 6.14776 12.7464 5.76068 12.8515C5.90096 11.6223 6.35818 10.5865 7.07778 9.60392C6.84917 9.5507 6.65563 9.51566 6.42832 9.48061C6.88554 8.54995 7.51811 7.79581 8.37799 7.14551C8.23771 7.81268 8.27278 8.37472 8.85209 8.77839C8.79884 8.58499 8.74688 8.39159 8.71181 8.18131C8.69363 8.02296 8.69363 7.8659 8.71181 7.72442C8.81702 7.16239 9.22098 6.93394 9.76653 7.09229C9.87174 7.12734 9.97695 7.16239 10.1185 7.23248C9.96006 6.84567 9.69639 6.68862 9.38075 6.54713C9.38075 6.51209 9.38075 6.49392 9.36256 6.45887C9.87174 6.30051 10.364 6.10711 10.8914 5.9851C11.3486 5.87996 11.8396 5.87996 12.315 5.82674C12.7722 5.77353 13.1229 5.95005 13.4217 6.28364C13.5269 6.38878 13.6321 6.49392 13.7555 6.59905C13.7737 6.58088 13.8087 6.58088 13.8256 6.56401C13.7906 6.38878 13.7555 6.23042 13.7204 6.03702C13.7737 6.03702 13.8256 6.03702 13.8789 6.05519C14.4231 6.21355 14.9505 6.42382 15.3895 6.79246C15.4597 6.84567 15.5649 6.91577 15.5831 7.00273C15.6883 7.35449 15.7766 7.72312 15.8818 8.05671C15.3726 7.70495 14.8453 7.33632 14.2828 6.95081C14.1945 7.21431 14.1426 7.40771 14.0724 7.61798C13.6685 7.37266 13.3165 7.14421 12.9476 6.95081C12.8073 6.88072 12.6137 6.84567 12.4553 6.88072C11.8409 6.98586 11.2603 7.21431 10.7329 7.65303C10.8212 7.72312 10.9083 7.77634 11.0486 7.88148C10.6615 8.07488 10.3277 8.25011 10.0653 8.63691C10.5225 8.56682 10.5745 8.86536 10.7147 9.12885C10.9433 9.58575 11.3473 9.8142 11.8565 9.83107C12.4709 9.84924 13.0865 9.83107 13.7191 9.83107C13.5438 9.63767 13.332 9.44427 13.1398 9.23399C12.9294 8.98867 12.6657 8.90041 12.3488 8.93545C11.9097 8.9705 11.4876 8.86536 11.1369 8.58369C11.6292 8.00479 12.0851 7.98661 13.0697 8.5136C13.2281 8.42534 13.3853 8.35525 13.5438 8.26828C13.5619 8.3215 13.5788 8.33837 13.5788 8.33837C13.3684 8.7771 13.3684 8.7771 13.7191 9.12885C13.9295 9.33913 14.1231 9.56758 14.3166 9.77785C14.5803 9.72463 14.844 9.65454 15.1077 9.65454C15.3713 9.63637 15.635 9.68959 15.9338 9.70776C15.5467 9.28591 15.1609 8.90041 14.7738 8.49673C14.792 8.46168 14.8271 8.42664 14.844 8.39159C14.9843 8.47985 15.1245 8.54995 15.283 8.63691C15.4584 8.60187 15.5636 8.25011 15.8104 8.49673C15.9857 8.67196 15.9688 8.84849 15.7922 9.07564C15.9325 9.23399 16.0909 9.37418 16.2494 9.56758C16.2845 9.44427 16.3027 9.39235 16.3377 9.32226H16.391C17.6561 11.1135 18.025 13.0449 17.3041 15.2035C17.1288 15.0101 16.9703 14.8517 16.7768 14.6596C16.6534 15.4852 16.4429 16.2042 16.039 16.8545C15.6545 17.5217 15.1271 18.0656 14.4595 18.5043ZM12.5085 11.2887C12.719 11.6924 12.9307 12.061 13.106 12.4297C13.1944 12.6231 13.3165 12.6581 13.4931 12.6049C14.1075 12.4465 14.5829 12.061 15.0739 11.6742C15.0921 11.6561 15.1271 11.621 15.1271 11.586C15.1271 11.3225 15.1622 11.059 15.109 10.8137C15.0908 10.7085 14.8635 10.6553 14.7401 10.5683C14.6517 10.5151 14.5816 10.445 14.4946 10.4282C14.3712 10.3931 14.2309 10.3399 14.1075 10.3749C13.51 10.5515 13.019 10.9032 12.5085 11.2887ZM13.6165 13.3954C13.6866 13.5537 13.81 13.7471 13.8971 13.9574C13.9672 14.1158 14.0555 14.1508 14.1958 14.0807C14.4595 13.9405 14.7232 13.8172 15.0219 13.677L15.1271 14.5194C15.1622 14.5194 15.1973 14.5194 15.2155 14.5013C15.6194 14.1859 15.8831 13.764 15.9182 13.2721C15.9364 13.0436 15.7779 12.71 15.5844 12.5867C15.4259 12.4816 15.0752 12.5335 14.8816 12.6399C14.4595 12.8165 14.0555 13.115 13.6165 13.3954ZM16.2338 10.3762C16.0403 10.4995 15.9 10.6047 15.7415 10.7098C15.6883 10.7449 15.6363 10.815 15.6363 10.8682C15.4778 11.5535 15.8818 11.9922 16.304 12.466C16.5858 11.7625 16.4975 11.0784 16.2338 10.3762Z" fill=""/>
<path d="M13.3879 3.42413C13.423 3.95112 13.458 4.40672 13.5113 4.91683C13.81 4.58325 14.0555 4.31975 14.3192 4.03939L14.3725 4.0926C14.2673 4.60142 14.1439 5.12841 14.0205 5.65539C12.263 5.21667 10.577 5.41007 8.9612 6.26935C8.73259 5.76053 8.48709 5.28676 8.22341 4.70656C8.5923 4.935 8.90924 5.14528 9.27813 5.37373C9.20799 4.88179 9.13785 4.42619 9.04952 3.91608C9.61195 4.30288 10.1042 4.63646 10.6303 5.0051C10.8057 4.47811 10.9823 3.98617 11.1745 3.42543C11.4902 3.91737 11.772 4.3561 12.0708 4.84804C12.5267 4.37167 12.9307 3.93295 13.3879 3.42413ZM2.54717 15.2567C2.5121 15.1516 2.47703 15.0815 2.44196 14.9932C2.77578 14.853 3.09141 14.7297 3.44342 14.5895C3.54863 14.8699 3.65384 15.1516 3.77724 15.467C3.83049 15.5721 3.9357 15.7123 3.95259 15.8706C3.97078 16.0991 3.75905 16.1692 3.5837 16.2393C3.40835 16.3094 3.24988 16.3795 3.05634 16.4496C3.02127 16.3613 2.9862 16.2912 2.93294 16.1861C3.12648 16.0978 3.32002 16.0459 3.49537 15.9407C3.56552 15.9057 3.60059 15.7824 3.63566 15.7123C3.54733 15.6772 3.44212 15.6072 3.35509 15.624C3.17974 15.6591 3.00309 15.7473 2.79266 15.8343C2.75759 15.7642 2.72252 15.6759 2.66927 15.589C2.8628 15.5007 3.05634 15.4488 3.21351 15.3437C3.28365 15.2904 3.31872 15.1853 3.35379 15.0983C3.26547 15.0802 3.16025 15.0101 3.07323 15.0282C2.93424 15.0983 2.75889 15.1866 2.54717 15.2567ZM6.3244 18.0656C6.41273 18.1357 6.48287 18.1889 6.5699 18.259C6.28933 18.6107 6.02565 18.9443 5.7269 19.3129C5.90226 19.4531 6.06073 19.5933 6.25426 19.7517C6.20101 19.8218 6.14905 19.8918 6.07891 19.9801L5.28787 19.348C5.63988 18.9261 5.9737 18.5043 6.3244 18.0656ZM11.0161 20.7875C11.2265 20.7524 11.3148 20.8225 11.2616 21.0159L11.2083 21.3845C11.1551 21.7 10.9277 21.8934 10.629 21.8414C10.3134 21.8064 10.1367 21.5961 10.1549 21.2625C10.1731 21.0691 10.2082 20.8757 10.225 20.6486C10.3302 20.6667 10.4004 20.6836 10.5056 20.7018C10.4705 20.8952 10.4355 21.0886 10.4355 21.2638C10.4355 21.369 10.5238 21.5092 10.6108 21.5442C10.7511 21.6143 10.8563 21.491 10.8914 21.3508C10.9459 21.173 10.981 20.9809 11.0161 20.7875ZM2.95113 13.3603C2.79266 12.7814 2.3887 13.1669 2.07307 13.0618C2.07307 13.0086 2.05488 12.9216 2.03799 12.8165C2.40689 12.7814 2.75889 12.7282 3.09271 12.6931C3.12778 12.9216 3.14597 13.0968 3.16285 13.3071C3.1096 13.3253 3.03946 13.3253 2.95113 13.3603ZM4.40981 18.4342C4.35655 18.381 4.32148 18.3109 4.25134 18.2408L5.04238 17.5554C5.18266 17.7138 5.32294 17.8709 5.48141 18.0474C5.44634 18.0824 5.3762 18.1357 5.32294 18.1876C4.86702 17.7852 4.72544 18.3472 4.40981 18.4342ZM3.35509 16.9597C3.30184 16.8714 3.26677 16.8013 3.21481 16.7143C3.53044 16.5391 3.82919 16.3626 4.16301 16.1874C4.21627 16.2756 4.25134 16.3457 4.32148 16.4327C3.98766 16.6092 3.67203 16.7663 3.35509 16.9597ZM4.5332 15.8706C4.62153 15.994 4.70856 16.064 4.69167 16.1341C4.67349 16.2042 4.58646 16.2574 4.5332 16.3094C4.47995 16.2562 4.37474 16.1861 4.35785 16.1341C4.33967 16.064 4.44488 15.994 4.5332 15.8706Z" fill=""/>
<path d="M9.69768 20.559C9.48725 20.3838 9.27553 20.3838 9.04822 20.5239C8.8378 20.6472 8.74947 20.9276 8.81961 21.1911C8.88975 21.4196 9.08329 21.5597 9.34697 21.5597H9.48725C9.34697 21.8583 9.17162 21.8583 8.78454 21.5597C8.73129 21.613 8.67933 21.648 8.60919 21.7181C8.94301 22.175 9.54051 22.21 9.71586 21.7882C9.87433 21.4196 9.94447 21.0328 10.0679 20.6472C9.92628 20.6109 9.786 20.6291 9.69768 20.559ZM9.73275 21.0678C9.60935 21.1379 9.50414 21.2612 9.38074 21.2781C9.20539 21.2962 9.10018 21.1548 9.11706 20.9795C9.13525 20.8043 9.24046 20.681 9.39763 20.716C9.52102 20.7511 9.62624 20.8744 9.73145 20.9445V21.0678H9.73275ZM3.65384 11.412H2.01981V11.6924C2.19516 11.6924 2.37181 11.7105 2.54716 11.7105C2.54716 11.8338 2.54716 11.939 2.56535 12.0259C2.60042 12.3245 2.81084 12.5179 3.10959 12.5179C3.39016 12.5179 3.61877 12.3427 3.65384 12.061C3.67202 11.8507 3.65384 11.6404 3.65384 11.412ZM3.24988 12.1493C3.21481 12.1843 3.02127 12.2025 3.00438 12.1493C2.91606 12.0441 2.88098 11.8858 2.81084 11.7105H3.40834C3.3382 11.8858 3.32002 12.0441 3.24988 12.1493ZM8.4689 20.1203C8.29355 19.9619 8.10001 19.9269 7.88959 19.997C7.66098 20.0852 7.53759 20.2773 7.5207 20.5239C7.5207 20.7342 7.60903 20.9458 7.81945 21.0328C8.01299 21.121 8.20652 21.1729 8.43383 21.243C8.57412 20.9445 8.7144 20.6291 8.85598 20.3124C8.7144 20.2254 8.57412 20.2072 8.4689 20.1203ZM8.13508 20.8043C8.02987 20.8043 7.87141 20.6641 7.85452 20.559C7.81945 20.4006 7.94285 20.2436 8.1182 20.2604C8.2416 20.2786 8.34681 20.3838 8.4702 20.4538V20.5772C8.34551 20.6641 8.2403 20.8043 8.13508 20.8043ZM7.37912 20.2773C7.58954 20.0138 7.58954 19.7503 7.3973 19.5401C7.20376 19.3298 6.86994 19.2947 6.64134 19.47C6.41273 19.6452 6.34259 19.9788 6.48287 20.2072C6.64134 20.4525 6.94009 20.5759 7.25572 20.4175C7.15051 20.3474 7.08037 20.2773 6.99204 20.2423C6.81669 20.1891 6.67641 20.1021 6.71148 19.8555C6.94009 20.032 7.15051 20.1553 7.37912 20.2773ZM7.27391 19.9801C7.09855 19.8749 6.97516 19.7867 6.83487 19.6997C7.09725 19.5751 7.22065 19.6465 7.27391 19.9801ZM12.1396 21.6298C11.9461 21.735 11.824 21.6649 11.7357 21.4546H12.5085C12.5085 21.0678 12.3682 20.8575 12.0695 20.8056C11.824 20.7524 11.5603 20.8939 11.4551 21.1392C11.3499 21.4027 11.4369 21.7012 11.6486 21.8596C11.8773 22.0179 12.2111 21.9647 12.4215 21.7544C12.3514 21.5948 12.2812 21.5597 12.1396 21.6298ZM12.2111 21.2262H11.737C11.8941 20.9808 11.9993 20.9808 12.2111 21.2262ZM4.74362 17.0829C4.62023 16.8195 4.35655 16.6961 4.07598 16.7675C3.8123 16.8376 3.61877 17.0829 3.65384 17.3646C3.67202 17.645 3.88245 17.8734 4.26822 17.8916C4.19808 17.7683 4.1799 17.6813 4.10976 17.6281C3.91622 17.4697 3.88115 17.3828 4.00454 17.1712C4.16301 17.3815 4.30329 17.5749 4.46176 17.7852C4.7787 17.5918 4.86702 17.3464 4.74362 17.0829ZM4.42799 17.4165C4.33966 17.2932 4.26952 17.1712 4.18249 17.0648C4.20068 17.0466 4.21757 17.0297 4.23575 16.9947C4.32408 17.0479 4.42929 17.0829 4.48124 17.153C4.5345 17.2231 4.51632 17.3283 4.5345 17.4165H4.42799ZM3.35509 14.0456C3.3369 13.7821 3.16155 13.5719 2.89787 13.5186C2.61731 13.4654 2.35363 13.6069 2.24841 13.8341C2.12502 14.1144 2.23023 14.413 2.52898 14.6064C2.56405 14.5531 2.61731 14.4831 2.65238 14.4311C2.51209 14.2377 2.37181 14.0625 2.61731 13.8341C2.68745 14.1144 2.75759 14.3429 2.82773 14.6064C3.21481 14.5194 3.37327 14.3442 3.35509 14.0456ZM2.95113 14.2741C2.91606 14.0988 2.88098 13.9587 2.84591 13.7821C3.14466 13.9223 3.16285 14.0625 2.95113 14.2741Z" fill=""/>
</g>
<defs>
<clipPath id="clip0_7_936">
<rect width="24" height="24" fill="white"/>
</clipPath>
</defs>
</svg>
