<svg width="222" height="281" viewBox="0 0 222 281" fill="none" xmlns="http://www.w3.org/2000/svg">
<path fill-rule="evenodd" clip-rule="evenodd" d="M98.4006 6.95098C99.6928 3.12051 100.684 0.183527 100.71 0.112511C100.741 0.0204566 100.792 0 100.843 0.0613697C101.028 0.265935 115.18 22.5124 116.532 24.7218C116.952 25.4071 117.321 25.9696 117.351 25.9798C117.382 25.9798 118.447 24.8854 119.707 23.5455C128.012 14.7696 138.201 3.47762 140.321 0.695523C140.608 0.317077 140.864 0.0102283 140.905 0C140.935 0 141.017 0.95123 141.079 2.11725C141.714 12.6626 143.127 28.0357 143.495 28.4142C143.526 28.4346 143.669 28.2096 143.823 27.9028C143.966 27.6061 144.437 26.8595 144.868 26.2355C146.486 23.8728 148.37 21.6942 151.247 18.8712C153.982 16.1811 156.562 14.0434 159.634 11.8955C160.639 11.1937 161.061 10.8932 161.137 10.964C161.195 11.0181 161.052 11.2887 160.812 11.7625C156.982 19.3724 154.75 28.7517 153.849 40.954C153.756 42.1405 153.664 43.1224 153.644 43.1429C153.623 43.1736 153.306 43.1224 152.958 43.0304C151.555 42.6724 145.421 41.2813 143.198 40.8108C137.29 39.5528 131.903 38.755 126.558 38.3356C124.284 38.1617 114.566 38.1617 112.067 38.3356C101.745 39.072 93.2143 40.596 84.2128 43.3168C75.7234 45.8841 66.978 49.7094 59.8608 53.9746C59.2464 54.3429 58.7139 54.5986 58.6729 54.5577C58.632 54.5065 58.3964 53.7701 58.1609 52.9314C55.0068 41.9155 49.8763 30.8076 44.6434 23.6887C44.3566 23.2898 44.1416 22.9625 44.1621 22.942C44.2235 22.8807 47.695 24.5786 49.4667 25.5298C53.952 27.9437 58.4374 30.9201 61.3764 33.4465C62.5848 34.4898 64.3052 36.2593 64.7046 36.8832C64.9913 37.323 65.022 37.3435 64.9708 37.0775C64.8787 36.6275 64.3769 33.3033 63.7317 28.8438C62.6155 21.193 61.6017 14.8412 60.9156 11.2102C60.7517 10.3101 60.6289 9.56344 60.6391 9.54299C60.6596 9.52253 61.059 9.79869 61.5403 10.1465C68.6574 15.3527 89.9271 29.7643 90.5005 29.7643C90.6439 29.7643 92.9071 23.2284 97.7918 8.75541L98.4006 6.95098ZM67.4695 55.7237C82.9635 48.2775 98.4677 44.2271 114.781 43.327C115.15 43.3066 118.027 43.3066 121.181 43.3168C126.865 43.3475 128.124 43.4089 130.766 43.7771C131.698 43.9101 132.814 44.4828 135.057 45.9762C139.901 49.1981 146.066 55.0793 148.708 58.9865C148.943 59.3343 149.158 59.6309 149.189 59.6309C149.281 59.6309 149.097 57.2682 148.882 55.693C148.513 53.0951 147.899 50.2925 147.1 47.6638C146.895 47.0195 146.752 46.4774 146.783 46.4569C146.844 46.3955 150.531 47.3979 152.835 48.1139C159.399 50.1493 165.257 52.7473 170.889 56.1226C173.91 57.933 176.122 59.4673 180.167 62.5358C181.355 63.4359 182.338 64.1825 182.358 64.203C182.379 64.2132 182.44 64.7042 182.481 65.2769C183.044 72.0276 184.642 77.4486 188.554 85.9074C188.984 86.8382 189.312 87.6053 189.291 87.6257C189.271 87.6462 189.035 87.4212 188.769 87.1245C188.503 86.8279 187.653 85.9892 186.885 85.263C178.487 77.3463 164.325 67.7624 157.207 65.1951C156.573 64.9599 156.255 64.8883 156.255 64.9803C156.255 65.2872 155.723 68.6932 155.538 69.6137C155.211 71.1991 154.647 73.2755 154.238 74.3494C153.828 75.4336 153.214 76.7838 153.081 76.8656C153.04 76.8963 152.405 76.4871 151.688 75.9655C143.035 69.7569 134.392 64.428 129.148 62.0857L128.196 61.6664L126.588 61.9323C113.009 64.1518 100.413 69.7058 92.4667 76.9883L91.8113 77.5918L94.6172 80.0773C96.1636 81.4479 97.4334 82.6139 97.4539 82.6548C97.4743 82.6957 97.0852 82.8594 96.5834 83.0026C91.5041 84.5572 86.0254 88.1678 82.0521 92.5762C80.731 94.0389 79.7275 95.3379 79.8299 95.4299C79.8708 95.4708 82.0828 95.9004 84.7249 96.3914C87.3772 96.8823 89.6096 97.3017 89.7018 97.3324C89.8349 97.3631 89.8861 97.5779 89.9373 98.2734C90.4493 104.646 94.4431 110.312 101.007 114.025C102.656 114.956 105.687 116.367 106.834 116.746C108.155 117.175 109.876 117.554 111.678 117.799C113.777 118.086 120.557 118.055 125.482 117.728C130.387 117.41 136.757 117.38 139.256 117.656C143.239 118.106 146.445 118.853 149.005 119.927C149.396 120.092 149.629 120.2 149.663 120.155C149.711 120.092 149.368 119.728 148.523 118.802C143.444 113.217 137.679 107.417 133.675 103.868C132.786 103.078 132.424 102.724 131.99 102.533C131.564 102.346 131.068 102.317 129.937 102.191C127.08 101.884 124.96 101.792 121.744 101.853C117.474 101.925 114.525 101.649 111.586 100.902C109.835 100.462 108.626 100.022 107.971 99.5826C107.09 98.9996 106.005 98.4473 103.383 97.2301C101.151 96.197 99.7068 95.4299 99.0719 94.9696C98.8261 94.7855 98.8568 94.7446 100.075 93.7013C104.745 89.7021 110.306 86.6336 115.764 85.0482L117.321 84.5982L118.939 85.0891C124.53 86.7666 130.439 89.518 134.217 92.1978C134.74 92.566 135.18 92.8728 135.201 92.8728C135.221 92.8728 135.6 92.566 136.04 92.1978C137.73 90.7965 140.167 89.385 142.113 88.6792C143.147 88.3008 144.98 87.861 145.533 87.861H145.922L145.267 88.6281C143.936 90.1828 142.963 91.9318 142.512 93.5888C142.164 94.8571 142.174 97.0562 142.523 98.2938L142.768 99.1632L144.059 100.391C148.401 104.513 154.074 110.414 158.447 115.344L159.46 116.49L160.136 116.152C162.768 114.843 166.516 113.933 170.93 113.534C172.486 113.401 177.136 113.391 178.784 113.534C183.935 113.964 187.939 115.017 189.998 116.48L190.51 116.848L190.213 116.439C187.683 113.063 184.13 109.514 178.58 104.84C173.918 100.909 173.521 100.604 173.358 100.203C173.33 100.135 173.309 100.064 173.275 99.9713C172.794 98.7336 171.268 96.3198 168.083 91.7477C167.079 90.3158 166.168 88.9963 166.055 88.802L165.861 88.4645L166.25 88.6486C169.087 89.9578 173.408 92.5558 176.173 94.6014L177.299 95.4299L177.648 95.0003C178.805 93.5479 180.966 91.8193 182.42 91.1852C183.259 90.8067 184.488 90.4181 184.816 90.4181C185.144 90.4181 186.229 91.3181 186.977 92.208C188.482 93.9775 189.445 96.2073 189.598 98.2631C189.701 99.5008 189.578 99.7769 188.585 100.697C187.694 101.536 186.567 102.385 186.362 102.385C186.301 102.385 186.26 102.426 186.28 102.467C186.301 102.518 188.431 104.809 191.022 107.571C195.405 112.235 195.732 112.562 195.804 112.317C195.845 112.174 195.999 110.67 196.142 108.982C196.285 107.295 196.419 105.863 196.439 105.812C196.49 105.638 199.603 110.506 201.744 114.097C212.302 131.853 218.507 149.139 220.453 166.261C222.327 182.657 220.535 198.858 214.923 216.471L214.309 218.394L214.032 218.077C213.346 217.279 204.13 206.939 204.109 206.959C204.099 206.969 204.017 207.706 203.925 208.606C202.88 219.069 200.3 229.083 196.357 237.93C190.069 252.066 180.198 264.135 166.588 274.343C164.048 276.245 160.187 278.905 160.095 278.813C160.075 278.782 159.081 275.151 157.894 270.743C156.706 266.324 155.702 262.632 155.661 262.529C155.6 262.376 155.497 262.417 154.873 262.877C147.069 268.564 136.675 273.515 126.435 276.419C105.001 282.485 83.5062 280.889 65.4726 271.898C64.4793 271.397 62.4517 270.323 61.868 269.976C61.8577 269.976 61.9089 269.689 61.9908 269.362C62.1957 268.462 63.4245 262.263 63.7727 260.31C64.848 254.469 65.7082 248.026 66.0768 243.075C67.0599 230.259 66.169 218.732 63.3119 207.174C62.7691 204.975 61.9089 201.906 61.8372 201.906C61.8065 201.906 61.5403 202.305 61.233 202.806C60.9258 203.297 59.8813 204.893 58.9187 206.356C53.9008 213.935 48.6679 220.716 42.8513 227.17C41.0387 229.185 35.1913 235.015 33.3685 236.631C30.9927 238.728 27.0501 241.899 26.8043 241.899C26.7122 241.899 25.3809 239.383 24.7767 238.033C20.0456 227.62 17.3523 213.434 16.871 196.434C16.5638 185.439 17.6697 173.543 19.4823 168.265C19.6257 167.846 19.7383 167.488 19.7179 167.478C19.6974 167.457 15.2837 169.145 9.91765 171.221C4.54136 173.308 0.0969594 175.006 0.0457566 175.006C-0.00544614 175.006 -0.0156867 174.413 0.0252755 173.594C0.639709 161.597 6.41538 143.892 14.3518 129.746C17.4752 124.161 21.0491 118.945 24.2237 115.314C24.8279 114.608 24.8586 114.557 24.6436 114.506C24.5104 114.475 21.6738 113.902 18.3354 113.237C14.997 112.573 12.2423 112 12.2115 111.969C12.1194 111.877 14.7512 106.783 16.1029 104.441C19.2058 99.061 22.8105 93.7832 26.5483 89.1395C33.1739 80.916 41.3561 73.1732 49.5588 67.3737L50.2449 66.893L49.5588 68.2431C48.5245 70.2786 47.8794 72.4879 47.48 75.2802C47.3059 76.5383 47.3059 80.7421 47.48 81.9797C48.1354 86.6029 49.6817 90.4487 52.2009 93.7422C53.3581 95.2663 55.3345 97.0971 57.1163 98.2938C57.9253 98.8359 59.6765 99.8281 59.8198 99.8281C59.8506 99.8281 59.5434 99.1223 59.1337 98.2631C56.9013 93.6093 55.6315 89.2725 55.1809 84.8027C55.0478 83.4628 55.0478 80.8239 55.1809 79.6272C55.6724 75.2597 57.3416 71.3525 59.7379 68.9796C61.7758 66.9748 64.4486 65.6452 67.4183 65.1951C68.7803 64.9803 71.0947 65.0519 72.6308 65.3588C75.5391 65.9316 78.9082 67.4556 81.4377 69.3478C81.8166 69.6342 82.1545 69.849 82.175 69.8285C82.2569 69.7569 80.7515 66.893 80.0552 65.7884C76.9113 60.7458 72.979 57.7182 68.4936 56.8693C67.9611 56.767 67.1316 56.6443 66.6503 56.6034L65.7798 56.5318L67.4695 55.7237ZM172.056 134.349C168.052 132.651 163.639 130.267 159.716 127.68C158.836 127.097 158.098 126.626 158.078 126.636C158.068 126.636 157.638 126.728 157.126 126.831C149.804 128.293 141.417 132.119 132.292 138.133C129.394 140.046 124.663 143.472 124.458 143.81C124.427 143.871 125.103 145.16 125.974 146.694C129.671 153.23 133.818 160.952 137.177 167.539L137.771 168.716L138.488 168.797C140.321 169.022 143.475 168.716 145.943 168.092C153.337 166.23 162.594 160.789 172.005 152.78L173.459 151.542V143.247V134.952L172.056 134.349ZM198.456 145.242C197.822 139.923 196.419 134.369 194.401 129.204C194.135 128.518 193.879 127.956 193.848 127.966C193.817 127.966 193.561 128.14 193.275 128.355C191.493 129.695 187.048 132.702 184.314 134.41L182.42 135.596L182.389 143.851L182.369 152.115L183.72 153.608C186.639 156.81 187.438 157.71 188.257 158.692C190.551 161.474 192.128 163.898 193.776 167.192L194.534 168.705L195.108 167.56C197.115 163.56 198.262 159.254 198.661 154.202C198.835 152.033 198.723 147.533 198.456 145.242ZM187.929 177.716C186.536 174.188 184.509 170.669 182.379 168.133L181.805 167.437L175.712 167.447H169.619L168.083 168.726C160.382 175.149 152.466 179.987 147.284 181.45C146.096 181.787 144.571 182.063 143.946 182.063C143.731 182.063 143.557 182.094 143.557 182.125C143.557 182.166 144.079 183.137 144.724 184.303C147.366 189.09 150.766 195.657 151.544 197.477L151.77 197.999L152.906 197.61C155.784 196.649 159.409 195.145 161.939 193.877C165.338 192.179 167.684 190.594 169.332 188.886C169.855 188.344 170.305 187.945 170.326 187.986C170.438 188.149 171.227 191.484 171.565 193.13C172.241 196.506 172.66 199.983 172.804 203.359C172.845 204.249 172.896 204.975 172.916 204.975C172.998 204.975 174.166 204.29 174.944 203.799C177.607 202.08 180.29 199.441 182.287 196.588C185.164 192.445 187.223 187.525 188.451 181.818C188.63 180.997 188.735 180.575 188.717 180.159C188.694 179.62 188.466 179.089 187.929 177.716Z" fill="url(#paint0_linear_76_1283)"/>
<defs>
<linearGradient id="paint0_linear_76_1283" x1="110.585" y1="-18.7904" x2="110.585" y2="290.948" gradientUnits="userSpaceOnUse">
<stop stop-color="#660769"/>
<stop offset="1" stop-color="#250326"/>
</linearGradient>
</defs>
</svg>
